<svg width="165" height="43" viewBox="0 0 165 43" fill="none" xmlns="http://www.w3.org/2000/svg">
<g clip-path="url(#clip0_1_589)">
<path d="M49.0303 37.8611H52.6924V32.58H56.8868C59.7825 32.58 61.9542 30.5812 61.9542 27.909C61.9542 25.1527 59.8251 23.1328 56.8868 23.1328H49.0303V37.8611ZM52.6924 29.5923V26.2258H56.461C57.5256 26.2258 58.2495 26.9202 58.2495 27.9301C58.2495 28.9189 57.5256 29.5923 56.461 29.5923H52.6924Z" fill="#181818"/>
<path d="M63.4092 37.8611H67.0713V32.4958H69.8605L72.671 37.8611H76.7589L73.5014 31.9699C75.1834 31.2123 76.2906 29.6765 76.2906 27.8249C76.2906 25.0896 74.0976 23.1328 71.0315 23.1328H63.4092V37.8611ZM67.0713 29.5502V26.2258H70.6909C71.8193 26.2258 72.5858 26.899 72.5858 27.888C72.5858 28.8769 71.8193 29.5502 70.6909 29.5502H67.0713Z" fill="#181818"/>
<path d="M85.1769 38.0926C89.6482 38.0926 93.1402 34.7471 93.1402 30.4969C93.1402 26.2468 89.6482 22.9014 85.1769 22.9014C80.7056 22.9014 77.2139 26.2468 77.2139 30.4969C77.2139 34.7471 80.7056 38.0926 85.1769 38.0926ZM85.1769 34.7682C82.7923 34.7682 80.9825 32.9376 80.9825 30.4969C80.9825 28.0562 82.7923 26.2258 85.1769 26.2258C87.5616 26.2258 89.3717 28.0562 89.3717 30.4969C89.3717 32.9376 87.5616 34.7682 85.1769 34.7682Z" fill="#181818"/>
<path d="M91.9268 37.8611H96.1207L99.6551 32.9377L103.211 37.8611H107.576L101.827 30.2656L107.129 23.1328H102.934L99.7409 27.5724L96.547 23.1328H92.1824L97.5686 30.2656L91.9268 37.8611Z" fill="#181818"/>
<path d="M107.604 37.8611H111.267V23.1328H107.604V37.8611Z" fill="#181818"/>
<path d="M113.313 37.8611H125.152V34.7262H116.975V31.9488H122.319V28.9189H116.975V26.2679H125.066V23.1328H113.313V37.8611Z" fill="#181818"/>
<path d="M132.374 38.072C136.42 38.072 138.91 36.2204 138.91 33.2326C138.91 30.9603 137.399 29.5085 134.525 29.0456L131.437 28.5407C130.181 28.3302 129.67 27.9726 129.67 27.2362C129.67 26.4366 130.585 25.9527 132.076 25.9527C133.651 25.9527 135.078 26.4997 136.654 27.699L138.591 25.0269C136.952 23.7223 134.545 22.9229 132.331 22.9229C128.52 22.9229 126.221 24.6482 126.221 27.5097C126.221 29.6769 127.562 31.1286 129.989 31.5495L133.268 32.1176C134.759 32.37 135.333 32.7698 135.333 33.5904C135.333 34.4951 134.332 35.0211 132.65 35.0211C130.926 35.0211 129.5 34.432 127.69 32.9802L125.646 35.6103C127.498 37.1673 129.968 38.072 132.374 38.072Z" fill="#181818"/>
<path d="M49.041 19.7314H60.4468V16.5646H52.6673V5.14746H49.041V19.7314Z" fill="#181818"/>
<path d="M62.043 19.7314H65.6692V5.14746H62.043V19.7314Z" fill="#181818"/>
<path d="M75.074 19.9602C79.3959 19.9602 82.5584 16.7518 82.5584 12.3557V11.314H74.6523V14.4184H78.637C78.2153 15.7726 76.845 16.7101 75.1372 16.7101C72.7128 16.7101 70.8996 14.8767 70.8996 12.4391C70.8996 10.0223 72.6495 8.20976 75.0107 8.20976C76.4866 8.20976 77.7515 8.8348 78.7213 10.0432L81.2724 7.77225C79.8598 6.00135 77.5196 4.91797 75.0107 4.91797C70.6045 4.91797 67.168 8.20976 67.168 12.4391C67.168 16.6684 70.6255 19.9602 75.074 19.9602Z" fill="#181818"/>
<path d="M84.0527 19.7314H87.6789V14.0228H93.7505V19.7314H97.3769V5.14746H93.7505V10.7518H87.6789V5.14746H84.0527V19.7314Z" fill="#181818"/>
<path d="M103.388 19.7314H107.014V8.31424H111.841V5.14746H98.5596V8.31424H103.388V19.7314Z" fill="#181818"/>
<path d="M113.022 19.7314H116.438V10.9394L123.353 19.7314H126.558V5.14746H123.142V13.6061L116.438 5.14746H113.022V19.7314Z" fill="#181818"/>
<path d="M128.577 19.7314H132.203V5.14746H128.577V19.7314Z" fill="#181818"/>
<path d="M134.229 19.7314H137.644V10.9394L144.56 19.7314H147.764V5.14746H144.348V13.6061L137.644 5.14746H134.229V19.7314Z" fill="#181818"/>
<path d="M157.164 19.9602C161.486 19.9602 164.648 16.7518 164.648 12.3557V11.314H156.742V14.4184H160.727C160.305 15.7726 158.935 16.7101 157.227 16.7101C154.803 16.7101 152.989 14.8767 152.989 12.4391C152.989 10.0223 154.739 8.20976 157.101 8.20976C158.576 8.20976 159.841 8.8348 160.811 10.0432L163.362 7.77225C161.95 6.00135 159.609 4.91797 157.101 4.91797C152.694 4.91797 149.258 8.20976 149.258 12.4391C149.258 16.6684 152.715 19.9602 157.164 19.9602Z" fill="#181818"/>
<path d="M35.7105 0H7.70152C3.44809 0 0 3.41536 0 7.62842V35.3716C0 39.5846 3.44809 43 7.70152 43H35.7105C39.9639 43 43.412 39.5846 43.412 35.3716V7.62842C43.412 3.41536 39.9639 0 35.7105 0Z" fill="#1675FF"/>
<path d="M11.9639 11.0323L14.0757 5.93359H30.3103C32.5541 6.23864 37.0417 8.2084 37.0417 13.647C37.0417 18.664 33.3726 20.8774 31.1114 21.4983C30.7569 21.5957 30.3891 21.6218 30.0211 21.6218H18.8273L21.2031 16.2617H29.4734C29.6781 16.2617 29.8836 16.2351 30.0709 16.153C30.8121 15.8283 31.8941 15.0224 31.8941 13.647C31.8941 12.2716 30.8121 11.4656 30.0709 11.141C29.8836 11.0589 29.6781 11.0323 29.4734 11.0323H11.9639Z" fill="white"/>
<path d="M20.6989 12.5547H14.8915L8.29199 28.243H19.511L14.6274 40.5322L32.1819 23.0136H16.3433L20.6989 12.5547Z" fill="white"/>
</g>
<defs>
<clipPath id="clip0_1_589">
<rect width="164.723" height="43" fill="white"/>
</clipPath>
</defs>
</svg>
